<svg width="104" height="93" viewBox="0 0 104 93" fill="none" xmlns="http://www.w3.org/2000/svg">
<g filter="url(#filter0_d_1_858)">
<path d="M53.9994 47.5H57.4333C59.0267 47.5 59.8833 45.6282 58.8418 44.4224L58.1296 43.5978C57.2486 42.5777 56.8256 41.2404 56.9598 39.8992V39.8992C57.249 37.0085 54.979 34.5 52.0738 34.5H51.9264C49.021 34.5 46.7507 37.0085 47.0396 39.8995V39.8995C47.1737 41.2405 46.7507 42.5777 45.8699 43.5977L45.1579 44.4221C44.1164 45.6282 44.9732 47.5 46.5667 47.5H49.9994M53.9994 47.5V48C53.9994 49.1046 53.104 50 51.9994 50V50C50.8948 50 49.9994 49.1046 49.9994 48V47.5M53.9994 47.5H49.9994M49.9994 34.5V34C49.9994 32.8954 50.8948 32 51.9994 32V32C53.104 32 53.9994 32.8954 53.9994 34V34.5H49.9994Z" stroke="#424242" stroke-width="1.5" stroke-linejoin="round"/>
<circle cx="58.5" cy="32.5" r="4.5" fill="#8204FF"/>
<circle cx="58.5" cy="32.5" r="4.5" fill="black" fill-opacity="0.2"/>
</g>
<defs>
<filter id="filter0_d_1_858" x="-8" y="-19" width="120" height="120" filterUnits="userSpaceOnUse" color-interpolation-filters="sRGB">
<feFlood flood-opacity="0" result="BackgroundImageFix"/>
<feColorMatrix in="SourceAlpha" type="matrix" values="0 0 0 0 0 0 0 0 0 0 0 0 0 0 0 0 0 0 127 0" result="hardAlpha"/>
<feOffset/>
<feGaussianBlur stdDeviation="20"/>
<feComposite in2="hardAlpha" operator="out"/>
<feColorMatrix type="matrix" values="0 0 0 0 0 0 0 0 0 0 0 0 0 0 0 0 0 0 0.07 0"/>
<feBlend mode="normal" in2="BackgroundImageFix" result="effect1_dropShadow_1_858"/>
<feBlend mode="normal" in="SourceGraphic" in2="effect1_dropShadow_1_858" result="shape"/>
</filter>
</defs>
</svg>
